<svg width="24" height="25" viewBox="0 0 24 25" fill="none" xmlns="http://www.w3.org/2000/svg">
<path d="M10.4239 4.58735C10.739 4.49105 11.073 4.4741 11.3963 4.538C11.7195 4.60191 12.022 4.74469 12.2768 4.95366C12.5315 5.16263 12.7307 5.4313 12.8566 5.73581C12.9825 6.04031 13.0313 6.3712 12.9985 6.69908C12.9657 7.02695 12.8524 7.34164 12.6687 7.61517C12.4849 7.88871 12.2365 8.11261 11.9454 8.26698C11.6542 8.42135 11.3295 8.5014 11 8.50001H2M13.4239 20.4127C13.739 20.509 14.073 20.5259 14.3963 20.462C14.7195 20.3981 15.022 20.2553 15.2768 20.0464C15.5315 19.8374 15.7307 19.5687 15.8566 19.2642C15.9825 18.9597 16.0313 18.6288 15.9985 18.3009C15.9657 17.9731 15.8524 17.6584 15.6687 17.3849C15.4849 17.1113 15.2365 16.8874 14.9454 16.733C14.6542 16.5787 14.3295 16.4986 14 16.5H2M17.73 8.23001C18.0208 7.9399 18.3787 7.72593 18.7719 7.60703C19.1652 7.48812 19.5816 7.46795 19.9845 7.5483C20.3874 7.62865 20.7642 7.80703 21.0817 8.06768C21.3993 8.32833 21.6477 8.66321 21.805 9.0427C21.9623 9.4222 22.0236 9.83461 21.9836 10.2435C21.9436 10.6523 21.8035 11.045 21.5756 11.3868C21.3477 11.7286 21.0391 12.009 20.6771 12.2032C20.3151 12.3973 19.9108 12.4993 19.5 12.5H2" stroke="#0F172A" stroke-width="1.5" stroke-linecap="round" stroke-linejoin="round"/>
</svg>
